<svg xmlns="http://www.w3.org/2000/svg" width="512" height="512" viewBox="0 0 512 512">
  <defs>
    <linearGradient id="g" x1="0" y1="0" x2="1" y2="1">
      <stop offset="0" stop-color="#3b63f1"/><stop offset="1" stop-color="#1d33d3"/>
    </linearGradient>
  </defs>
  <rect width="512" height="512" rx="112" fill="url(#g)"/>
  <g transform="translate(256 256)">
    <circle r="168" fill="#0d0f13"/>
    <circle r="168" fill="none" stroke="#000" stroke-opacity="0.4" stroke-width="14"/>
    <g stroke="#1f2430" stroke-width="26">
      <line x1="0" y1="-104" x2="0" y2="-160"/><line x1="0" y1="104" x2="0" y2="160"/>
      <line x1="-104" y1="0" x2="-160" y2="0"/><line x1="104" y1="0" x2="160" y2="0"/>
      <line x1="74" y1="-74" x2="113" y2="-113"/><line x1="-74" y1="74" x2="-113" y2="113"/>
      <line x1="74" y1="74" x2="113" y2="113"/><line x1="-74" y1="-74" x2="-113" y2="-113"/>
    </g>
    <circle r="92" fill="#2a2f3c"/>
    <circle r="92" fill="none" stroke="#3a4150" stroke-width="10"/>
    <circle r="36" fill="#0d0f13"/>
    <g fill="#5c86f8">
      <circle cx="0" cy="-62" r="13"/><circle cx="59" cy="19" r="13"/>
      <circle cx="36" cy="50" r="13"/><circle cx="-36" cy="50" r="13"/><circle cx="-59" cy="19" r="13"/>
    </g>
  </g>
</svg>
